<svg xmlns="http://www.w3.org/2000/svg" viewBox="0 0 2000 1500">
    <defs>
        <linearGradient id="a" gradientUnits="userSpaceOnUse" x1="0" y1="750" x2="1550" y2="750">
            <stop offset="0" style="stop-color:white;stop-opacity:0" />
            <stop offset="1" style="stop-color:white;stop-opacity:.2" />
        </linearGradient>
        <path id="b" fill="url(#a)" d="M1549 52a1562 1562 0 0 1-143 572 1537 1537 0 0 1-839 778 1504 1504 0 0 1-567 98 1502 1502 0 0 0 808-258 1477 1477 0 0 0 612-916c18-92 28-185 29-278 0-27 23-48 51-48s49 22 49 50v2z" />
        <g id="c">
            <use href="#b" transform="rotate(60) scale(.12)" />
            <use href="#b" transform="rotate(10) scale(.2)" />
            <use href="#b" transform="rotate(40) scale(.25)" />
            <use href="#b" transform="rotate(-20) scale(.3)" />
            <use href="#b" transform="rotate(-30) scale(.4)" />
            <use href="#b" transform="rotate(20) scale(.5)" />
            <use href="#b" transform="rotate(60) scale(.6)" />
            <use href="#b" transform="rotate(10) scale(.7)" />
            <use href="#b" transform="rotate(-40) scale(.835)" />
            <use href="#b" transform="rotate(40) scale(.9)" />
            <use href="#b" transform="rotate(25) scale(1.05)" />
            <use href="#b" transform="rotate(8) scale(1.2)" />
            <use href="#b" transform="rotate(-60) scale(1.333)" />
            <use href="#b" transform="rotate(-30) scale(1.45)" />
            <use href="#b" transform="rotate(10) scale(1.6)" />
        </g>
    </defs>
    <g transform="rotate(-50 0 0)">
        <use href="#c" transform="rotate(10)" />
        <use href="#c" transform="rotate(120)" />
        <use href="#c" transform="rotate(240)" />
    </g>
    <circle fill="url(#a)" r="3000" />
</svg>
