<?xml version="1.0" encoding="UTF-8" standalone="no"?>
<!-- Created with Inkscape (http://www.inkscape.org/) -->

<svg
   width="134.99042mm"
   height="14.208125mm"
   viewBox="0 0 134.99042 14.208125"
   version="1.1"
   id="svg5"
   inkscape:version="1.1 (c68e22c387, 2021-05-23)"
   sodipodi:docname="hrw.svg"
   xmlns:inkscape="http://www.inkscape.org/namespaces/inkscape"
   xmlns:sodipodi="http://sodipodi.sourceforge.net/DTD/sodipodi-0.dtd"
   xmlns="http://www.w3.org/2000/svg"
   xmlns:svg="http://www.w3.org/2000/svg">
  <sodipodi:namedview
     id="namedview7"
     pagecolor="#505050"
     bordercolor="#eeeeee"
     borderopacity="1"
     inkscape:pageshadow="0"
     inkscape:pageopacity="0"
     inkscape:pagecheckerboard="0"
     inkscape:document-units="mm"
     showgrid="false"
     fit-margin-top="0"
     fit-margin-left="0"
     fit-margin-right="0"
     fit-margin-bottom="0"
     inkscape:zoom="1.0809568"
     inkscape:cx="129.05234"
     inkscape:cy="57.819149"
     inkscape:window-width="1846"
     inkscape:window-height="1057"
     inkscape:window-x="66"
     inkscape:window-y="-8"
     inkscape:window-maximized="1"
     inkscape:current-layer="layer1" />
  <defs
     id="defs2" />
  <g
     inkscape:label="Ebene 1"
     inkscape:groupmode="layer"
     id="layer1"
     transform="translate(-72.32139,-104.76302)">
    <g
       id="g23"
       transform="matrix(0.26458333,0,0,0.26458333,9.3240994,83.64927)">
      <path
         class="st0"
         d="m 251.7,99 h -2.8 c -0.2,0 -0.4,-0.2 -0.4,-0.4 v -7.7 h -6.8 v 7.7 c 0,0.2 -0.2,0.4 -0.4,0.4 h -2.8 c -0.2,0 -0.4,-0.2 -0.4,-0.4 V 80.4 c 0,-0.2 0.2,-0.4 0.4,-0.4 h 2.8 c 0.2,0 0.4,0.2 0.4,0.4 v 7.3 h 6.7 v -7.3 c 0,-0.2 0.2,-0.4 0.4,-0.4 h 2.8 c 0.2,0 0.4,0.2 0.4,0.4 v 18.2 c 0.1,0.2 -0.1,0.4 -0.3,0.4 z m 12.9,0.2 H 263 c -4,0 -6.3,-2.3 -6.3,-6.3 v -6.8 c 0,-4 2.3,-6.3 6.3,-6.3 h 1.6 c 4,0 6.3,2.3 6.3,6.3 v 6.8 c 0,4 -2.3,6.3 -6.3,6.3 z m 2.7,-13.1 c 0,-2.3 -0.9,-3.2 -3.2,-3.2 h -0.8 c -2.3,0 -3.2,0.9 -3.2,3.2 v 6.8 c 0,2.3 0.9,3.2 3.2,3.2 h 0.8 c 2.3,0 3.2,-0.9 3.2,-3.2 z m 15.4,13.1 h -1.6 c -4,0 -6.3,-2.3 -6.3,-6.3 v -6.8 c 0,-4 2.3,-6.3 6.3,-6.3 h 1.6 c 3.7,0 5.9,1.9 6.3,5.3 0,0.2 -0.2,0.4 -0.4,0.4 h -2.8 c -0.2,0 -0.4,-0.2 -0.4,-0.4 -0.3,-1.5 -1.2,-2.2 -3.1,-2.2 h -0.8 c -2.3,0 -3.2,0.9 -3.2,3.2 v 6.8 c 0,2.3 0.9,3.2 3.2,3.2 h 0.8 c 1.9,0 2.8,-0.7 3.1,-2.2 0,-0.2 0.2,-0.4 0.4,-0.4 h 2.8 c 0.2,0 0.4,0.2 0.4,0.4 -0.4,3.3 -2.6,5.3 -6.3,5.3 z M 306.5,99 h -2.8 c -0.2,0 -0.4,-0.2 -0.3,-0.4 v -7.7 h -6.8 v 7.7 c 0,0.2 -0.2,0.4 -0.4,0.4 h -2.8 C 293.2,99 293,98.8 293,98.6 V 80.4 c 0,-0.2 0.2,-0.4 0.4,-0.4 h 2.8 c 0.2,0 0.4,0.2 0.4,0.4 v 7.3 h 6.7 v -7.3 c 0,-0.2 0.2,-0.4 0.4,-0.4 h 2.8 c 0.2,0 0.4,0.2 0.4,0.4 v 18.2 c 0,0.2 -0.2,0.4 -0.4,0.4 z m 16.9,-1.1 c -1.3,1 -2.9,1.4 -4.5,1.3 h -1.6 c -3.8,0 -6,-1.8 -6.3,-5.4 0,-0.2 0.2,-0.4 0.4,-0.4 h 2.7 c 0.2,0 0.4,0.2 0.4,0.4 0.2,1.7 1.1,2.2 3.1,2.2 h 0.8 c 2.9,0 3.2,-1.1 3.2,-2.4 v -0.2 c 0,-1.1 0,-1.9 -4.2,-2.6 -1.4,-0.2 -2.8,-0.7 -4,-1.5 -1.4,-0.8 -2.2,-2.4 -2.2,-4 v -0.2 c 0,-2.6 1.7,-5.3 6.5,-5.3 h 0.8 c 3.5,0 5.7,1.8 6.2,4.9 0,0.2 -0.1,0.4 -0.3,0.4 h -2.8 c -0.2,0 -0.4,-0.2 -0.4,-0.4 -0.4,-1.3 -1.3,-1.8 -3,-1.8 -0.9,-0.1 -1.9,0.2 -2.7,0.7 -0.5,0.4 -0.7,0.9 -0.7,1.5 v 0.2 c 0,0.5 0,1.7 4,2.4 3.8,0.6 6.5,1.5 6.5,5.7 v 0.2 c 0,1.7 -0.7,3.2 -1.9,4.3 z m 13.6,1.3 h -1.6 c -4,0 -6.3,-2.3 -6.3,-6.3 v -6.8 c 0,-4 2.3,-6.3 6.3,-6.3 h 1.6 c 3.7,0 5.9,1.9 6.3,5.3 0,0.2 -0.2,0.4 -0.4,0.4 h -2.8 c -0.2,0 -0.4,-0.2 -0.4,-0.4 -0.3,-1.5 -1.2,-2.2 -3.1,-2.2 h -0.8 c -2.3,0 -3.2,0.9 -3.2,3.2 v 6.8 c 0,2.3 0.9,3.2 3.2,3.2 h 0.8 c 1.9,0 2.8,-0.7 3.1,-2.2 0,-0.2 0.2,-0.4 0.4,-0.4 h 2.8 c 0.2,0 0.4,0.2 0.4,0.4 -0.4,3.3 -2.6,5.3 -6.3,5.3 z M 360.8,99 H 358 c -0.2,0 -0.4,-0.2 -0.3,-0.4 v -7.7 h -6.8 v 7.7 c 0,0.2 -0.2,0.4 -0.4,0.4 h -2.8 c -0.2,0 -0.4,-0.2 -0.4,-0.4 V 80.4 c 0,-0.2 0.2,-0.4 0.4,-0.4 h 2.8 c 0.2,0 0.4,0.2 0.4,0.4 v 7.3 h 6.7 v -7.3 c 0,-0.2 0.2,-0.4 0.4,-0.4 h 2.8 c 0.2,0 0.4,0.2 0.4,0.4 v 18.2 c 0,0.2 -0.2,0.4 -0.4,0.4 z m 12.7,0.2 h -1.2 c -4,0 -6.3,-2.3 -6.3,-6.3 V 80.4 c 0,-0.2 0.2,-0.4 0.4,-0.4 h 2.8 c 0.2,0 0.4,0.2 0.4,0.4 v 12.5 c 0,2.3 0.9,3.2 3.2,3.2 h 0.4 c 2.3,0 3.1,-0.9 3.1,-3.2 V 80.4 c 0,-0.2 0.2,-0.4 0.4,-0.4 h 2.8 c 0.2,0 0.4,0.2 0.4,0.4 v 12.5 c -0.1,4 -2.4,6.3 -6.4,6.3 z M 395.7,99 H 385.4 C 385.2,99 385,98.8 385,98.6 V 80.4 c 0,-0.2 0.2,-0.4 0.4,-0.4 h 2.7 c 0.2,0 0.4,0.2 0.4,0.4 v 15.4 h 7.1 c 0.2,0 0.4,0.2 0.4,0.4 v 2.4 c 0,0.2 -0.1,0.4 -0.3,0.4 z m 16.4,0 h -11.9 c -0.2,0 -0.4,-0.2 -0.4,-0.4 V 80.4 c 0,-0.2 0.2,-0.4 0.4,-0.4 h 11.9 c 0.2,0 0.4,0.2 0.4,0.4 v 2.4 c 0,0.2 -0.2,0.4 -0.4,0.4 h -8.7 v 4.5 h 7.1 c 0.2,0 0.4,0.2 0.4,0.4 v 2.4 c 0,0.2 -0.2,0.4 -0.4,0.4 h -7.1 v 5 h 8.7 c 0.2,0 0.4,0.2 0.4,0.4 v 2.4 c 0,0.1 -0.1,0.3 -0.4,0.3 z m 37.2,0 H 446 c -0.2,0 -0.4,-0.2 -0.5,-0.4 l -2.8,-4.9 h -4 v 4.9 c 0,0.2 -0.2,0.4 -0.4,0.4 h -2.8 c -0.2,0 -0.4,-0.2 -0.4,-0.4 V 80.4 c 0,-0.2 0.2,-0.4 0.4,-0.4 h 7.5 c 4,0 6.3,2.3 6.3,6.3 v 1 c 0,2.7 -1,4.7 -3,5.6 l 3.2,5.6 c 0.2,0.3 0.1,0.5 -0.2,0.5 z m -3.5,-12.6 c 0,-2.3 -0.9,-3.2 -3.2,-3.2 h -4 v 7.3 h 4 c 2.2,0 3.1,-0.9 3.1,-3.1 z m 14.9,12.8 h -1.2 c -4,0 -6.3,-2.3 -6.3,-6.3 V 80.4 c 0,-0.2 0.2,-0.4 0.4,-0.4 h 2.8 c 0.2,0 0.4,0.2 0.4,0.4 v 12.4 c 0,2.3 0.9,3.2 3.2,3.2 h 0.4 c 2.2,0 3.1,-0.9 3.1,-3.2 V 80.4 c 0,-0.2 0.2,-0.4 0.4,-0.4 h 2.8 c 0.2,0 0.4,0.2 0.4,0.4 v 12.4 c -0.1,4.1 -2.4,6.4 -6.4,6.4 z M 485.1,99 h -2.8 c -0.2,0 -0.4,-0.2 -0.4,-0.4 v -7.7 h -6.7 v 7.7 c 0,0.2 -0.2,0.4 -0.4,0.4 h -2.7 c -0.2,0 -0.4,-0.2 -0.4,-0.4 V 80.4 c 0,-0.2 0.2,-0.4 0.4,-0.4 h 2.8 c 0.2,0 0.4,0.2 0.4,0.4 v 7.3 h 6.7 v -7.3 c 0,-0.2 0.2,-0.4 0.4,-0.4 h 2.8 c 0.2,0 0.4,0.2 0.4,0.4 v 18.1 c -0.1,0.3 -0.2,0.5 -0.5,0.5 z m 19.4,0 h -3.3 c -0.2,0 -0.4,-0.2 -0.5,-0.4 l -2.8,-4.9 h -4 v 4.9 c 0,0.2 -0.2,0.4 -0.4,0.4 h -2.8 c -0.2,0 -0.4,-0.2 -0.4,-0.4 V 80.4 c 0,-0.2 0.2,-0.4 0.4,-0.4 h 7.5 c 4,0 6.3,2.3 6.3,6.3 v 1 c 0,2.7 -1,4.7 -3,5.6 l 3.2,5.6 c 0.2,0.3 0,0.5 -0.2,0.5 z M 501,86.4 c 0,-2.3 -0.9,-3.2 -3.2,-3.2 h -4 v 7.3 h 4 c 2.2,0 3.1,-0.9 3.1,-3.1 z m 38.7,12.2 c 0,0.2 -0.2,0.4 -0.4,0.4 h -3 c -0.2,0 -0.4,-0.2 -0.5,-0.4 l -2.5,-8.3 -2.5,8.3 c -0.1,0.2 -0.3,0.4 -0.5,0.4 h -3 c -0.2,0 -0.4,-0.2 -0.5,-0.4 l -2,-18.1 c 0,-0.2 0.1,-0.4 0.3,-0.4 h 2.8 c 0.2,0 0.4,0.2 0.4,0.4 l 1,11.9 1.8,-5.8 c 0.1,-0.2 0.2,-0.4 0.5,-0.4 h 3.1 c 0.2,0 0.4,0.2 0.5,0.4 l 1.8,5.8 1,-11.9 c 0,-0.2 0.2,-0.4 0.4,-0.4 h 2.8 c 0.2,0 0.4,0.2 0.3,0.4 z m 18.9,0.4 h -11.8 c -0.2,0 -0.4,-0.2 -0.4,-0.4 V 80.4 c 0,-0.2 0.2,-0.4 0.4,-0.4 h 11.8 c 0.2,0 0.4,0.2 0.4,0.4 v 2.4 c 0,0.2 -0.2,0.4 -0.4,0.4 h -8.7 v 4.5 h 7.1 c 0.2,0 0.4,0.2 0.4,0.4 v 2.4 c 0,0.2 -0.2,0.4 -0.4,0.4 h -7.1 v 5 h 8.7 c 0.2,0 0.4,0.2 0.4,0.4 v 2.4 c 0,0.1 -0.2,0.3 -0.4,0.3 z m 16.7,-1.1 c -1.3,1 -2.9,1.4 -4.5,1.3 h -1.6 c -3.7,0 -6,-1.8 -6.2,-5.4 0,-0.2 0.2,-0.4 0.4,-0.4 h 2.8 c 0.2,0 0.4,0.2 0.3,0.4 0.2,1.7 1.1,2.2 3.1,2.2 h 0.8 c 2.9,0 3.2,-1.1 3.2,-2.4 v -0.2 c 0,-1.1 0,-1.9 -4.2,-2.6 -1.4,-0.2 -2.8,-0.7 -4,-1.5 -1.4,-0.8 -2.2,-2.4 -2.2,-4 v -0.2 c 0,-2.6 1.7,-5.3 6.5,-5.3 h 0.8 c 3.5,0 5.7,1.8 6.2,4.9 0,0.2 -0.1,0.4 -0.3,0.4 h -2.8 c -0.2,0 -0.3,-0.2 -0.4,-0.4 -0.3,-1.3 -1.3,-1.8 -3,-1.8 -0.9,-0.1 -1.9,0.2 -2.7,0.7 -0.5,0.4 -0.7,0.9 -0.7,1.5 v 0.2 c 0,0.5 0,1.7 4,2.4 3.7,0.6 6.4,1.5 6.4,5.7 v 0.2 c 0,1.7 -0.7,3.2 -1.9,4.3 z m 19.3,-14.7 h -5.3 v 15.4 c 0,0.2 -0.2,0.4 -0.4,0.4 h -2.7 c -0.2,0 -0.4,-0.2 -0.4,-0.4 V 83.2 h -5.3 c -0.2,0 -0.4,-0.2 -0.4,-0.4 v -2.4 c 0,-0.2 0.2,-0.4 0.4,-0.4 h 14.2 c 0.2,0 0.4,0.2 0.4,0.4 v 2.4 c -0.1,0.2 -0.3,0.4 -0.5,0.4 z m -349.7,50.3 h -1.2 c -3.6,0 -5.5,-1.9 -5.5,-5.5 v -13.3 c 0,-0.2 0.2,-0.4 0.4,-0.4 h 1 c 0.2,0 0.4,0.2 0.4,0.4 V 128 c 0,2.7 1.2,3.9 4,3.9 h 0.8 c 2.7,0 4,-1.2 4,-3.9 v -13.3 c 0,-0.2 0.2,-0.4 0.4,-0.4 h 1 c 0.2,0 0.4,0.2 0.4,0.4 V 128 c -0.2,3.5 -2.1,5.5 -5.7,5.5 z m 23.5,-0.2 h -1.3 c -0.2,0 -0.5,-0.2 -0.6,-0.4 l -8.6,-15.4 v 15.4 c 0,0.2 -0.1,0.4 -0.3,0.4 h -1 c -0.2,0 -0.4,-0.1 -0.4,-0.3 v -18.3 c 0,-0.2 0.2,-0.4 0.4,-0.4 h 1.2 c 0.3,0 0.5,0.2 0.6,0.4 l 8.6,15.5 v -15.5 c 0,-0.2 0.2,-0.4 0.4,-0.4 h 1 c 0.2,0 0.4,0.2 0.4,0.4 v 18.2 c -0.1,0.2 -0.2,0.4 -0.4,0.4 z m 14.2,0 h -7.3 c -0.2,0 -0.4,-0.1 -0.4,-0.3 v -0.9 c 0,-0.2 0.2,-0.4 0.4,-0.4 h 2.8 v -15.8 h -2.4 c -0.2,0 -0.4,-0.1 -0.4,-0.4 v -0.8 c 0,-0.2 0.2,-0.4 0.4,-0.4 h 6.5 c 0.2,0 0.4,0.2 0.4,0.4 v 0.8 c 0,0.2 -0.2,0.4 -0.4,0.4 h -2.4 v 15.8 h 2.7 c 0.2,0 0.4,0.2 0.4,0.4 v 0.8 c 0,0.2 -0.1,0.4 -0.3,0.4 z m 13.4,-0.4 c -0.1,0.2 -0.2,0.4 -0.4,0.4 h -1.5 c -0.2,0 -0.4,-0.2 -0.4,-0.4 l -6.5,-18.2 c -0.1,-0.2 0,-0.4 0.2,-0.4 h 1.3 c 0.2,0 0.4,0.2 0.4,0.4 l 5.7,16.5 5.7,-16.5 c 0,-0.2 0.2,-0.4 0.4,-0.4 h 1.3 c 0.2,0 0.3,0.2 0.2,0.4 z m 22.9,0.4 h -11.1 c -0.2,0 -0.4,-0.2 -0.4,-0.4 v -18.2 c 0,-0.2 0.2,-0.4 0.4,-0.4 h 11 c 0.2,0 0.4,0.2 0.4,0.4 v 0.8 c 0,0.2 -0.2,0.4 -0.4,0.4 h -9.7 v 6.9 h 8.1 c 0.2,0 0.4,0.2 0.4,0.4 v 0.8 c 0,0.2 -0.2,0.4 -0.4,0.4 h -8.1 v 7.3 h 9.7 c 0.2,0 0.4,0.2 0.4,0.4 v 0.8 c 0.1,0.2 -0.1,0.4 -0.3,0.4 z m 18.5,0 h -1.3 c -0.2,0 -0.4,-0.2 -0.5,-0.4 l -3.3,-5.7 h -5.6 v 5.7 c 0,0.2 -0.1,0.4 -0.4,0.4 h -1 c -0.2,0 -0.4,-0.2 -0.4,-0.4 v -18.2 c 0,-0.2 0.2,-0.4 0.4,-0.4 h 6.7 c 3.6,0 5.5,1.9 5.5,5.6 v 1.8 c 0,2.8 -1.1,4.6 -3.3,5.3 l 3.4,6 c 0.1,0.1 0,0.3 -0.2,0.3 z m -1.7,-13.4 c 0,-2.7 -1.2,-4 -4,-4 h -5.1 v 9.7 h 5.1 c 2.7,0 4,-1.2 4,-4 z m 14.3,13.6 h -1.6 c -3.5,0 -5.4,-1.8 -5.5,-5.1 0,-0.2 0.1,-0.4 0.3,-0.4 h 1.1 c 0.2,0 0.4,0.2 0.4,0.4 0.1,2.4 1.3,3.6 3.9,3.6 h 1.2 c 3.5,0 4,-1.5 4,-3.2 V 128 c 0,-2 -0.7,-2.9 -4.9,-3.6 -4.9,-0.8 -5.8,-3.1 -5.8,-4.9 v -0.8 c 0,-2.8 2.1,-4.6 5.7,-4.6 h 0.8 c 3.3,0 5.1,1.6 5.5,4.6 0,0.2 -0.2,0.4 -0.4,0.4 h -1 c -0.2,0 -0.4,-0.2 -0.4,-0.4 -0.3,-2 -1.5,-2.9 -3.9,-2.9 H 349 c -1.6,0 -4.2,0.4 -4.2,2.9 v 0.8 c 0,1.7 1.6,2.8 4.7,3.3 3.9,0.7 6,1.7 6,5.2 v 0.8 c 0,3.1 -1.8,4.7 -5.5,4.7 z m 18.3,-0.2 H 361 c -0.2,0 -0.4,-0.1 -0.4,-0.3 v -0.9 c 0,-0.2 0.2,-0.4 0.4,-0.4 h 2.8 v -15.8 h -2.4 c -0.2,0 -0.4,-0.1 -0.4,-0.4 v -0.8 c 0,-0.2 0.2,-0.4 0.4,-0.4 h 6.5 c 0.2,0 0.4,0.2 0.4,0.4 v 0.8 c 0,0.2 -0.2,0.4 -0.4,0.4 h -2.4 v 15.8 h 2.7 c 0.2,0 0.4,0.2 0.4,0.4 v 0.8 c 0.1,0.2 -0.1,0.4 -0.3,0.4 z m 17.1,-17.4 h -5.8 v 17 c 0,0.2 -0.2,0.4 -0.4,0.4 h -1 c -0.2,0 -0.4,-0.2 -0.4,-0.4 v -17 H 372 c -0.2,0 -0.4,-0.1 -0.4,-0.3 v -0.9 c 0,-0.2 0.2,-0.4 0.4,-0.4 h 13.4 c 0.2,0 0.4,0.2 0.4,0.4 v 0.8 c 0,0.2 -0.2,0.4 -0.4,0.4 z m 11.2,8.7 v 8.2 c 0,0.2 -0.1,0.4 -0.3,0.4 h -1.1 c -0.2,0 -0.4,-0.2 -0.4,-0.4 v -8.2 l -5.7,-9.9 c -0.1,-0.2 0,-0.4 0.2,-0.4 h 1.3 c 0.2,0 0.4,0.2 0.5,0.4 l 4.6,8.3 4.6,-8.3 c 0.1,-0.2 0.3,-0.4 0.5,-0.4 h 1.3 c 0.2,0 0.3,0.2 0.2,0.4 z m 36.1,8.9 h -1.6 c -3.6,0 -5.5,-1.9 -5.5,-5.5 v -8.3 c 0,-3.6 1.9,-5.6 5.5,-5.6 h 1.6 c 3.6,0 5.5,1.9 5.5,5.5 v 8.3 c 0,3.6 -1.8,5.6 -5.5,5.6 z m 3.8,-13.8 c 0,-2.7 -1.2,-4 -4,-4 h -1.2 c -2.7,0 -4,1.2 -4,3.9 v 8.3 c 0,2.7 1.2,3.9 4,3.9 h 1.2 c 2.7,0 3.9,-1.2 3.9,-3.9 z m 19.9,-3.8 h -9.7 v 6.9 h 8.1 c 0.2,0 0.4,0.1 0.4,0.4 v 0.8 c 0,0.2 -0.2,0.4 -0.4,0.4 h -8.1 v 8.5 c 0,0.2 -0.1,0.4 -0.3,0.4 h -1 c -0.2,0 -0.4,-0.1 -0.4,-0.4 v -18.2 c 0,-0.2 0.2,-0.4 0.4,-0.4 h 11 c 0.2,0 0.4,0.2 0.4,0.4 v 0.8 c 0,0.2 -0.2,0.4 -0.4,0.4 z m 37.5,17.4 h -1.3 c -0.2,0 -0.3,-0.2 -0.4,-0.4 l -2,-5.5 h -8 l -2,5.5 c -0.1,0.2 -0.2,0.4 -0.4,0.4 h -1.3 c -0.2,0 -0.3,-0.2 -0.2,-0.4 l 6.8,-18.2 c 0.1,-0.2 0.2,-0.4 0.4,-0.4 h 1.4 c 0.2,0 0.3,0.2 0.4,0.4 l 6.8,18.2 c 0.1,0.2 0,0.4 -0.2,0.4 z m -7.7,-17 -3.5,9.5 h 6.9 z m 19.3,10.9 h -5.3 v 5.7 c 0,0.2 -0.2,0.4 -0.4,0.4 h -1 c -0.2,0 -0.4,-0.1 -0.4,-0.3 v -18.3 c 0,-0.2 0.2,-0.4 0.4,-0.4 h 6.7 c 3.6,0 5.5,1.9 5.5,5.5 v 1.8 c 0,3.6 -1.9,5.6 -5.5,5.6 z m 3.8,-7.4 c 0,-2.7 -1.2,-3.9 -4,-3.9 h -5.1 v 9.7 h 5.1 c 2.7,0 3.9,-1.2 3.9,-4 z m 13.8,7.4 h -5.3 v 5.7 c 0,0.2 -0.2,0.4 -0.4,0.4 h -1 c -0.2,0 -0.4,-0.1 -0.4,-0.3 v -18.3 c 0,-0.2 0.2,-0.4 0.4,-0.4 h 6.6 c 3.6,0 5.5,1.9 5.5,5.5 v 1.8 c 0.1,3.6 -1.8,5.6 -5.4,5.6 z m 3.8,-7.4 c 0,-2.7 -1.2,-3.9 -4,-3.9 h -5.1 v 9.7 h 5.1 c 2.7,0 3.9,-1.2 3.9,-4 z m 16.5,13.5 h -9.1 c -0.2,0 -0.4,-0.1 -0.4,-0.3 v -18.3 c 0,-0.2 0.2,-0.4 0.4,-0.4 h 1 c 0.2,0 0.4,0.2 0.4,0.4 v 17 h 7.7 c 0.2,0 0.4,0.2 0.4,0.4 v 0.8 c 0.1,0.2 -0.1,0.4 -0.4,0.4 0.1,0 0.1,0 0,0 z m 12,0 h -7.3 c -0.2,0 -0.4,-0.1 -0.4,-0.3 v -0.9 c 0,-0.2 0.2,-0.4 0.4,-0.4 h 2.8 v -15.8 h -2.4 c -0.2,0 -0.4,-0.1 -0.4,-0.3 v -0.9 c 0,-0.2 0.2,-0.4 0.4,-0.4 h 6.5 c 0.2,0 0.4,0.2 0.4,0.4 v 0.8 c 0,0.2 -0.2,0.4 -0.4,0.4 h -2.4 v 15.8 h 2.7 c 0.2,0 0.4,0.2 0.4,0.4 v 0.8 c 0,0.2 -0.1,0.4 -0.3,0.4 z m 16.6,0 h -11.1 c -0.2,0 -0.4,-0.2 -0.4,-0.4 v -18.2 c 0,-0.2 0.2,-0.4 0.4,-0.4 h 11 c 0.2,0 0.4,0.2 0.4,0.4 v 0.8 c 0,0.2 -0.2,0.4 -0.4,0.4 h -9.7 v 6.9 h 8.1 c 0.2,0 0.4,0.1 0.4,0.4 v 0.8 c 0,0.2 -0.2,0.4 -0.4,0.4 h -8.1 v 7.3 h 9.7 c 0.2,0 0.4,0.2 0.4,0.4 v 0.8 c 0.1,0.2 -0.1,0.4 -0.3,0.4 z m 13,0 h -6.7 c -0.2,0 -0.4,-0.1 -0.4,-0.4 v -18.2 c 0,-0.2 0.2,-0.4 0.4,-0.4 h 6.7 c 3.6,0 5.5,1.9 5.5,5.6 v 7.9 c 0,3.6 -1.9,5.5 -5.5,5.5 z m 3.7,-13.4 c 0,-2.8 -1.2,-4 -3.9,-4 h -5.2 v 15.8 h 5.1 c 2.7,0 4,-1.2 4,-4 z m 32.4,13.6 h -1.6 c -3.5,0 -5.4,-1.8 -5.5,-5.1 0,-0.2 0.2,-0.4 0.4,-0.4 h 1 c 0.2,0 0.4,0.2 0.4,0.4 0.1,2.4 1.3,3.6 3.9,3.6 h 1.2 c 3.5,0 4,-1.5 4,-3.2 V 128 c 0,-2 -0.7,-2.9 -4.9,-3.6 -4.9,-0.8 -5.8,-3.1 -5.8,-4.9 v -0.8 c 0,-2.8 2.1,-4.6 5.7,-4.6 h 0.8 c 3.3,0 5.2,1.6 5.5,4.6 0,0.2 -0.2,0.4 -0.4,0.4 h -1 c -0.2,0 -0.4,-0.2 -0.4,-0.4 -0.3,-2 -1.5,-2.9 -3.9,-2.9 h -0.4 c -1.6,0 -4.2,0.4 -4.2,2.9 v 0.8 c 0,1.7 1.6,2.8 4.7,3.3 3.9,0.7 6,1.7 6,5.2 v 0.8 c 0.1,3.1 -1.7,4.7 -5.5,4.7 z m 19,0 h -1.6 c -3.6,0 -5.5,-1.9 -5.5,-5.5 v -8.3 c 0,-3.6 1.9,-5.6 5.5,-5.6 h 1.6 c 3.4,0 5.3,1.7 5.5,4.9 0,0.2 -0.2,0.4 -0.4,0.4 h -1 c -0.2,0 -0.4,-0.2 -0.4,-0.4 -0.2,-2.3 -1.4,-3.4 -3.9,-3.4 h -1.2 c -2.7,0 -4,1.2 -4,3.9 v 8.3 c 0,2.7 1.2,3.9 4,3.9 h 1.2 c 2.5,0 3.7,-1 3.9,-3.3 0,-0.2 0.2,-0.4 0.4,-0.4 h 1 c 0.2,0 0.4,0.2 0.4,0.4 -0.2,3.4 -2.1,5.1 -5.5,5.1 z m 17.7,-0.2 h -7.3 c -0.2,0 -0.4,-0.1 -0.4,-0.3 v -0.9 c 0,-0.2 0.2,-0.4 0.4,-0.4 h 2.8 v -15.8 h -2.4 c -0.2,0 -0.4,-0.1 -0.4,-0.4 v -0.8 c 0,-0.2 0.2,-0.4 0.4,-0.4 h 6.5 c 0.2,0 0.4,0.2 0.4,0.4 v 0.8 c 0,0.2 -0.2,0.4 -0.4,0.4 H 655 v 15.8 h 2.7 c 0.2,0 0.4,0.2 0.4,0.4 v 0.8 c 0.1,0.2 -0.1,0.4 -0.3,0.4 z m 18.2,0 h -11 c -0.2,0 -0.4,-0.2 -0.4,-0.4 v -18.2 c 0,-0.2 0.2,-0.4 0.4,-0.4 h 11 c 0.2,0 0.4,0.2 0.4,0.4 v 0.8 c 0,0.2 -0.2,0.4 -0.4,0.4 h -9.7 v 6.9 h 8.1 c 0.2,0 0.4,0.1 0.4,0.4 v 0.8 c 0,0.2 -0.2,0.4 -0.4,0.4 h -8.1 v 7.3 h 9.7 c 0.2,0 0.4,0.2 0.4,0.4 v 0.8 c 0,0.2 -0.1,0.4 -0.4,0.4 z m 18.2,0 h -1.3 c -0.3,0 -0.5,-0.2 -0.6,-0.4 l -8.6,-15.4 v 15.4 c 0,0.2 -0.1,0.4 -0.3,0.4 h -1 c -0.2,0 -0.4,-0.1 -0.4,-0.3 v -18.3 c 0,-0.2 0.2,-0.4 0.4,-0.4 h 1.2 c 0.3,0 0.5,0.2 0.6,0.4 l 8.6,15.5 v -15.5 c 0,-0.2 0.2,-0.4 0.4,-0.4 h 1 c 0.2,0 0.4,0.2 0.4,0.4 v 18.2 c 0,0.2 -0.2,0.4 -0.4,0.4 z m 12.9,0.2 h -1.6 c -3.6,0 -5.5,-1.9 -5.5,-5.5 v -8.3 c 0,-3.6 1.9,-5.6 5.5,-5.6 h 1.6 c 3.4,0 5.3,1.7 5.5,4.9 0,0.2 -0.2,0.4 -0.4,0.4 h -1 c -0.2,0 -0.4,-0.2 -0.4,-0.4 -0.2,-2.3 -1.4,-3.4 -3.9,-3.4 h -1.2 c -2.7,0 -4,1.2 -4,3.9 v 8.3 c 0,2.7 1.2,3.9 4,3.9 h 1.2 c 2.5,0 3.7,-1 3.9,-3.3 0,-0.2 0.2,-0.4 0.4,-0.4 h 1 c 0.2,0 0.4,0.2 0.4,0.4 -0.1,3.4 -2,5.1 -5.5,5.1 z m 23.2,-0.2 h -11.1 c -0.2,0 -0.4,-0.2 -0.4,-0.4 v -18.2 c 0,-0.2 0.2,-0.4 0.4,-0.4 h 11 c 0.2,0 0.4,0.2 0.4,0.4 v 0.8 c 0,0.2 -0.2,0.4 -0.4,0.4 h -9.7 v 6.9 h 8.1 c 0.2,0 0.4,0.2 0.4,0.4 v 0.8 c 0,0.2 -0.2,0.4 -0.4,0.4 h -8.1 v 7.3 h 9.7 c 0.2,0 0.4,0.2 0.4,0.4 v 0.8 c 0.2,0.2 0,0.4 -0.3,0.4 z m 12.5,0.2 h -1.6 c -3.5,0 -5.4,-1.8 -5.5,-5.1 0,-0.2 0.2,-0.4 0.4,-0.4 h 1 c 0.2,0 0.4,0.2 0.4,0.4 0.1,2.4 1.3,3.6 3.9,3.6 h 1.2 c 3.5,0 4,-1.5 4,-3.2 V 128 c 0,-2 -0.7,-2.9 -4.9,-3.6 -4.9,-0.8 -5.8,-3.1 -5.8,-4.9 v -0.8 c 0,-2.8 2.1,-4.6 5.7,-4.6 h 0.8 c 3.3,0 5.2,1.6 5.5,4.6 0,0.2 -0.2,0.4 -0.4,0.4 h -1 c -0.2,0 -0.4,-0.2 -0.4,-0.4 -0.3,-2 -1.5,-2.9 -3.9,-2.9 h -0.4 c -1.6,0 -4.2,0.4 -4.2,2.9 v 0.8 c 0,1.7 1.6,2.8 4.7,3.3 3.9,0.7 6,1.7 6,5.2 v 0.8 c 0,3.1 -1.8,4.7 -5.5,4.7 z"
         id="path13"
         sodipodi:nodetypes="sssccssssssssccsssscssssssssssssssssssssssssscsscsssssscsscssscccssssssssccssssssccscsscssssccsssscsscccsscsscsssssscsscsssssscsscssscccssssssssccssssssssssssssssssssscsssssssscsssssssssssssccssssccsssssscccsssssssssccscsccsccssssssssssssssscssssccssssssssccsssscssscccsssssssssccscsccscccsscccssccsscccsscccssccsssssssssccssssccssssccscsscssssccsssscsscccsscsscscsssscsssssscsssssssssssssssscsssccsssssssccsssscssssssccssssssssccsssscssccsscccssccsssssssssccssssccsscssscccsssssssssccsssccssssscsscsssscsssscsscsssscssssssssccssssssssccsscsscsssscsssssssscssssccsscccssccssssssssscssssssccsccsssscssssssssssssccccssccssccsccccscsssssssssscsccsccscsssssssscscsccsccssssssscssccssssssccssssssssccsssssssssssssccssssccsscssssssssssssccssssscsscsssscsssscsscsssscscssssssscsscsssssscsscssssssccssssssssccsscssssssssssccssssccssssssccsssssssccsssssssssssscsscsssssscsscssssssssssccssssccsscssscsscsssscsssscsscsssscsss" />
    </g>
  </g>
  <style
     id="style9">.st0{fill:#009fe3}</style>
</svg>
