<svg width="89.2" height="103" viewBox="0 0 23.6 27.2" xmlns="http://www.w3.org/2000/svg">
    <path d="M57.1 121.4c-3.9 2.3-7.9 4.5-11.8 6.9v4.9l2.6 1.3H48.2v-.1a7.4 7.4 0 0 0 .5-.4l.1-.1c.6-.3 1.2-.4 1.8-.2l-5.3 3v5l11.9 7 3.6-2.2v-3.8h-.2l-.3-.2c-.5-.3-1-.9-1.1-1.5l3.7 2 2 1.1 4-2.3v-13.5l-4.1-2.5-2.5 1.4v.2l.1.9c0 .7-.4 1.3-1 1.8v-6.3zm0 .5 3.4 2-1.2.7-2.3-.2c-1.5 0-2.7.4-3.6 1.1-.8.7-1.4 1.6-1.4 2.7 0 1 .6 1.9 1.5 2.5.9.7 2.2 1.2 3.6 1.2 1.5 0 3-.3 4-1l.3-.2c.9-.6 1.5-1.5 1.5-2.4v-.8l1.9-1.2 3.3 2-11 6.3-11-6.2zm3.8 2.2v6.4l-1.5.6v-6zm-3.5.8 1.5.1v6.2c-.6.2-1.1.2-1.7.2-1.4 0-2.6-.4-3.4-1-.8-.7-1.3-1.5-1.3-2.2 0-1 .4-1.7 1.2-2.3a5.7 5.7 0 0 1 3.7-1zm11 3.8v12.8l-3.1 1.8v-2.1l.7-1c.8-1.3 1.1-2.7 1-3.9 0-1.1-.5-2.2-1.4-2.7-1-.6-2-.5-3.2 0-1 .5-2 1.5-2.8 2.7-.8 1.3-1.1 2.7-1 3.9 0 1.1.5 2.2 1.5 2.7l.2.1v3.2l-3 1.8v-13l11.1-6.3zm-22.6 0 11 6.3v13l-11-6.5v-4l1.6 1c.2.4.4 1.3.7 1.7a6.4 6.4 0 0 0 2.8 2.7c1 .5 2.2.6 3 0h.1c1-.4 1.4-1.5 1.5-2.7 0-1.2-.3-2.6-1-3.8a6.8 6.8 0 0 0-2.8-2.8c-1-.6-2.2-.6-3.1-.1l-.2.1-.2.2-.2.2-2.2-1.1zm18.3 5c.4 0 .8 0 1.2.3.8.4 1.2 1.3 1.3 2.4a6.3 6.3 0 0 1-1.5 4.2l-1.8-1-3.8-2.1.5-1c.7-1.1 1.7-2 2.6-2.4.5-.3 1-.4 1.5-.4zm-12.8.2.2.1 1.5 1.2-5.2 3-2-1.2zm2 1.6a7.2 7.2 0 0 1 1.7 4.7c0 1-.5 2-1.2 2.4-.8.4-1.8.3-2.7-.1a6 6 0 0 1-3.1-3.9zm6 2.4L63 140l1.8 1v2.6l-1.6-1-4.1-2.3v-.2c0-.6 0-1.4.3-2.2z" transform="translate(-45.3 -121.4)" />
</svg>