<?xml version="1.0" encoding="UTF-8" standalone="no"?>
<!-- Created with Inkscape (http://www.inkscape.org/) -->

<svg
   width="23.591032mm"
   height="27.24176mm"
   viewBox="0 0 23.591032 27.24176"
   version="1.1"
   id="svg916"
   xmlns="http://www.w3.org/2000/svg"
   xmlns:svg="http://www.w3.org/2000/svg">
  <defs
     id="defs913" />
  <g
     id="layer1"
     transform="translate(-45.319828,-121.37917)">
    <path
       id="path229"
       style="color:#000000;fill:#ffffff;fill-opacity:1;stroke:none;stroke-width:0.363735;stroke-miterlimit:10;stroke-dasharray:none;stroke-opacity:1"
       d="m 57.122023,121.37917 c -3.900117,2.34034 -7.892824,4.52806 -11.775867,6.89673 l -0.0043,4.88127 2.595149,1.35264 0.07957,-0.0135 c 0.10129,-0.017 0.11176,-0.0413 0.144216,-0.0625 0.03245,-0.0212 0.0646,-0.0447 0.09945,-0.0717 0.06973,-0.0541 0.148742,-0.1206 0.228755,-0.18826 0.08001,-0.0677 0.16056,-0.13575 0.225912,-0.18968 0.06538,-0.0539 0.13166,-0.10008 0.116512,-0.0916 0.531707,-0.29538 1.157926,-0.35103 1.812272,-0.19892 l -5.323864,3.05266 0.01351,5.02123 11.838382,6.85339 3.612473,-2.10852 v -3.80073 l -0.155582,-0.0597 c -0.115157,-0.0438 -0.22558,-0.0953 -0.330345,-0.157 -0.545518,-0.32098 -0.918488,-0.86154 -1.109669,-1.5416 l 3.758815,2.11917 1.866974,1.05426 4.083477,-2.33088 c -0.03239,-4.49969 0.04721,-9.00053 -0.0057,-13.50005 l -4.089869,-2.51558 -2.455203,1.46345 0.01775,0.1563 c 0.04069,0.34275 0.04337,0.73826 0.04191,0.86884 -0.007,0.68311 -0.380069,1.31547 -1.011636,1.83855 v -6.2744 z m 0.0021,0.55839 3.34251,1.91884 -1.197053,0.77009 c -0.444729,-0.0864 -1.309655,-0.26827 -2.268357,-0.23941 -1.468847,0.0442 -2.698147,0.45685 -3.571265,1.12956 -0.873121,0.67271 -1.386385,1.61555 -1.395261,2.66477 -0.0081,0.95246 0.547737,1.87937 1.457068,2.56674 0.90932,0.68737 2.181514,1.14386 3.657931,1.1594 1.470431,0.0152 2.87733,-0.35478 3.93784,-0.99174 0.110239,-0.0659 0.21893,-0.14371 0.307604,-0.20319 0.89021,-0.62378 1.484041,-1.46773 1.494007,-2.43958 0.0011,-0.11888 -0.01108,-0.45341 -0.03694,-0.76867 l 1.946547,-1.16082 3.264358,2.01048 -10.930469,6.21544 -11.042008,-6.17992 z m 3.787941,2.20655 v 6.31064 c -0.02512,0.0157 -0.04749,0.0329 -0.07317,0.0483 -0.424611,0.25502 -0.921375,0.46287 -1.459199,0.61877 v -5.99166 z m -3.549953,0.72392 c 0.583124,0.0133 1.131909,0.0977 1.534499,0.1705 v 6.20549 c -0.55456,0.12083 -1.141759,0.18808 -1.741939,0.18187 -1.379612,-0.0145 -2.55335,-0.44423 -3.371639,-1.06279 -0.818282,-0.61855 -1.272409,-1.41814 -1.26596,-2.17813 0.0076,-0.89651 0.432749,-1.68834 1.207706,-2.28542 0.774958,-0.59707 1.904411,-0.98913 3.290651,-1.03081 0.116195,-0.003 0.231997,-0.003 0.346682,-7.4e-4 z m 11.053374,3.84122 c 0.0014,4.26913 7.06e-4,8.53827 7.06e-4,12.8074 l -3.119438,1.7803 v -2.10638 c 0.267928,-0.31885 0.522182,-0.66141 0.746644,-1.04077 0.749476,-1.26845 1.083363,-2.62454 1.008793,-3.80996 -0.07457,-1.18542 -0.56792,-2.21638 -1.486193,-2.75642 -0.918246,-0.54002 -2.060907,-0.47162 -3.136491,0.0369 -1.075581,0.50857 -2.103307,1.45599 -2.853034,2.72445 -0.749716,1.26846 -1.083303,2.62389 -1.008789,3.80926 0.07451,1.18536 0.567969,2.21614 1.486189,2.75642 0.08018,0.0472 0.164416,0.0806 0.247227,0.11792 v 3.20612 l -2.951071,1.71707 v -12.95019 c 10.237378,-5.75502 9.6e-5,-9.1e-4 11.06545,-6.29216 z m -22.590474,0.0838 11.042717,6.18063 v 12.95303 l -11.052661,-6.43709 -0.01136,-3.90729 1.601989,0.92496 c 0.144808,0.42775 0.404625,1.2575 0.650028,1.69648 0.719614,1.28795 1.731084,2.22975 2.800466,2.73084 1.069383,0.50109 2.21112,0.56045 3.138622,0.0455 h 7.05e-4 c 0.935341,-0.52002 1.420598,-1.56095 1.491164,-2.75926 0.07057,-1.19831 -0.261754,-2.57442 -0.978951,-3.85828 -0.718471,-1.2862 -1.719771,-2.25605 -2.78057,-2.78696 -1.060828,-0.53091 -2.19945,-0.62214 -3.130099,-0.10514 -0.0748,0.0417 -0.119817,0.0831 -0.19039,0.14137 -0.07058,0.0582 -0.150121,0.12674 -0.228755,0.19323 -0.07826,0.0662 -0.15511,0.13042 -0.213128,0.17548 l -2.139773,-1.11607 z m 18.236399,4.89691 c 0.45569,-0.0124 0.884015,0.0878 1.260281,0.30903 0.752472,0.44253 1.181506,1.29994 1.248911,2.37137 0.0674,1.07142 -0.237504,2.34129 -0.942015,3.53361 -0.156045,0.26373 -0.328853,0.50634 -0.507948,0.73883 l -1.862708,-1.05212 -3.717615,-2.09999 c 0.126372,-0.30202 0.276483,-0.60344 0.451824,-0.9001 0.704716,-1.19232 1.671454,-2.07342 2.644171,-2.53335 0.486365,-0.22997 0.969409,-0.3549 1.425099,-0.36728 z m -12.801709,0.20531 c 0.08387,0.0356 0.167464,0.0702 0.251485,0.11224 0.529999,0.26525 1.052872,0.66351 1.53024,1.16722 l -5.240034,3.00506 -0.0014,-0.004 -1.996979,-1.15159 z m 2.107096,1.64887 c 0.26083,0.31882 0.504687,0.66872 0.719649,1.05355 0.676148,1.21038 0.981872,2.50769 0.917861,3.59471 -0.06401,1.08702 -0.485253,1.94317 -1.243941,2.36498 -0.767006,0.42587 -1.73379,0.3915 -2.698161,-0.0604 -0.96437,-0.45188 -1.910972,-1.32231 -2.585208,-2.52908 -0.150192,-0.26866 -0.356037,-0.85928 -0.515052,-1.32351 z m 6.000178,2.40405 3.653674,2.06163 1.793801,1.01519 v 2.54755 l -1.630405,-0.91999 -4.112602,-2.31809 c -0.0078,-0.07 -0.01824,-0.13833 -0.02275,-0.21028 -0.04212,-0.67021 0.06195,-1.41798 0.31827,-2.17601 z" />
  </g>
</svg>
