<svg viewBox="0 0 1000 666.7" fill="white" fill-opacity="0.1" preserveAspectRatio="xMaxYMax slice" xmlns="http://www.w3.org/2000/svg">
  <circle cx="353.3" cy="20" r="13.3" fill="#d0dd2b" style="stroke-width:.95648"/>
  <circle cx="433.3" cy="33.3" r="26.7" style="stroke-width:.95648"/>
  <circle cx="633.3" cy="33.3" r="26.7" fill="#d0dd2b" style="stroke-width:.95648"/>
  <circle cx="900" cy="33.3" r="26.7" style="stroke-width:.95648"/>
  <circle cx="166.7" cy="100" r="26.7" fill="#d0dd2b" style="stroke-width:.95648"/>
  <circle cx="286.7" cy="113.3" r="13.3" fill="#d0dd2b" style="stroke-width:.95648"/>
  <circle cx="380" cy="86.7" r="13.3" fill="#d0dd2b" style="stroke-width:.95648"/>
  <circle cx="900" cy="100" r="26.7" fill="#d0dd2b" style="stroke-width:.95648"/>
  <circle cx="366.7" cy="166.7" r="26.7" fill="#d0dd2b" style="stroke-width:.95648"/>
  <circle cx="433.3" cy="166.7" r="26.7" fill="#d0dd2b" style="stroke-width:.95648"/>
  <circle cx="900" cy="166.7" r="26.7" fill="#d0dd2b" style="stroke-width:.95648"/>
  <circle cx="33.3" cy="233.3" r="26.7" fill="#d0dd2b" style="stroke-width:.95648"/>
  <circle cx="366.7" cy="233.3" r="26.7" fill="#d0dd2b" style="stroke-width:.95648"/>
  <circle cx="500" cy="233.3" r="26.7" style="stroke-width:.95648"/>
  <circle cx="566.7" cy="233.3" r="26.7" fill="#d0dd2b" style="stroke-width:.95648"/>
  <circle cx="780" cy="220" r="13.3" style="stroke-width:.95648"/>
  <circle cx="753.3" cy="246.7" r="13.3" fill="#d0dd2b" style="stroke-width:.95648"/>
  <circle cx="20" cy="313.3" r="13.3" fill="#d0dd2b" style="stroke-width:.95648"/>
  <circle cx="46.7" cy="313.3" r="13.3" fill="#d0dd2b" style="stroke-width:.95648"/>
  <circle cx="153.3" cy="313.3" r="13.3" fill="#d0dd2b" style="stroke-width:.95648"/>
  <circle cx="633.3" cy="300" r="26.7" fill="#d0dd2b" style="stroke-width:.95648"/>
  <circle cx="33.3" cy="366.7" r="26.7" fill="#d0dd2b" style="stroke-width:.95648"/>
  <circle cx="113.3" cy="353.3" r="13.3" fill="#d0dd2b" style="stroke-width:.95648"/>
  <circle cx="86.7" cy="380" r="13.3" style="stroke-width:.95648"/>
  <circle cx="113.3" cy="380" r="13.3" fill="#d0dd2b" style="stroke-width:.95648"/>
  <circle cx="166.7" cy="366.7" r="26.7" fill="#d0dd2b" style="stroke-width:.95648"/>
  <circle cx="233.3" cy="366.7" r="26.7" style="stroke-width:.95648"/>
  <circle cx="286.7" cy="353.3" r="13.3" fill="#d0dd2b" style="stroke-width:.95648"/>
  <circle cx="313.3" cy="353.3" r="13.3" fill="#d0dd2b" style="stroke-width:.95648"/>
  <circle cx="820" cy="380" r="13.3" fill="#d0dd2b" style="stroke-width:.95648"/>
  <circle cx="846.7" cy="380" r="13.3" fill="#d0dd2b" style="stroke-width:.95648"/>
  <circle cx="700" cy="433.3" r="26.7" fill="#d0dd2b" style="stroke-width:.95648"/>
  <circle cx="20" cy="486.7" r="13.3" style="stroke-width:.95648"/>
  <circle cx="46.7" cy="486.7" r="13.3" fill="#d0dd2b" style="stroke-width:.95648"/>
  <circle cx="166.7" cy="500" r="26.7" fill="#d0dd2b" style="stroke-width:.95648"/>
  <circle cx="233.3" cy="500" r="26.7" style="stroke-width:.95648"/>
  <circle cx="420" cy="513.3" r="13.3" fill="#d0dd2b" style="stroke-width:.95648"/>
  <circle cx="566.7" cy="500" r="26.7" fill="#d0dd2b" style="stroke-width:.95648"/>
  <circle cx="753.3" cy="486.7" r="13.3" fill="#d0dd2b" style="stroke-width:.95648"/>
  <circle cx="780" cy="486.7" r="13.3" fill="#d0dd2b" style="stroke-width:.95648"/>
  <circle cx="100" cy="566.7" r="26.7" fill="#d0dd2b" style="stroke-width:.95648"/>
  <circle cx="233.3" cy="566.7" r="26.7" style="stroke-width:.95648"/>
  <circle cx="366.7" cy="566.7" r="26.7" fill="#d0dd2b" style="stroke-width:.95648"/>
  <circle cx="433.3" cy="566.7" r="26.7" fill="#d0dd2b" style="stroke-width:.95648"/>
  <circle cx="566.7" cy="566.7" r="26.7" style="stroke-width:.95648"/>
  <circle cx="820" cy="553.3" r="13.3" fill="#d0dd2b" style="stroke-width:.95648"/>
  <circle cx="33.3" cy="633.3" r="26.7" fill="#d0dd2b" style="stroke-width:.95648"/>
  <circle cx="166.7" cy="633.3" r="26.7" style="stroke-width:.95648"/>
  <circle cx="366.7" cy="633.3" r="26.7" style="stroke-width:.95648"/>
  <circle cx="446.7" cy="620" r="13.3" style="stroke-width:.95648"/>
  <circle cx="620" cy="620" r="13.3" style="stroke-width:.95648"/>
  <circle cx="620" cy="646.7" r="13.3" style="stroke-width:.95648"/>
  <circle cx="646.7" cy="646.7" r="13.3" style="stroke-width:.95648"/>
  <circle cx="700" cy="633.3" r="26.7" style="stroke-width:.95648"/>
  <circle cx="766.7" cy="633.3" r="26.7" style="stroke-width:.95648"/>
  <circle cx="966.7" cy="633.3" r="26.7" style="stroke-width:.95648"/>
</svg>
